# xmcd CD database file
#
# Track frame offsets:
#	225
#	24375
#	63525
#	85500
#	114825
#	153525
#	176925
#	205575
#	233325
#	256050
#	285450
#
# Disc length: 4082 seconds
#
# Revision: 0
# Processed by: cddbd v1.4PL0 Copyright (c) Steve Scherf et al.
# Submitted via: CDex 1.50beta10
#
DISCID=810fef0b
DTITLE=Philippe Milanta - Wild
DYEAR=2001
DGENRE=Jazz
TTITLE0=The song Is You
TTITLE1=Teddy Weddy
TTITLE2=Wild Is The Wind
TTITLE3=Burucoa Dantzan
TTITLE4=I Didn't Know What Time It Was
TTITLE5=Canadian Sunset
TTITLE6=Invitation
TTITLE7=Star Eyes
TTITLE8=Souvenir
TTITLE9=Hats
TTITLE10=What For?
EXTD=YEAR: 2001
EXTT0=
EXTT1=
EXTT2=
EXTT3=
EXTT4=
EXTT5=
EXTT6=
EXTT7=
EXTT8=
EXTT9=
EXTT10=
PLAYORDER=
